<svg aria-hidden="true" style="position: absolute; width: 0; height: 0; overflow: hidden;" version="1.1" xmlns="http://www.w3.org/2000/svg" xmlns:xlink="http://www.w3.org/1999/xlink">
<defs>

<symbol id="icon-heart" viewBox="0 0 32 32">
<path d="M28 11.313q0-1.266-0.336-2.234t-0.859-1.539-1.273-0.93-1.469-0.484-1.531-0.125-1.75 0.398-1.727 1-1.352 1.125-0.938 0.961q-0.281 0.344-0.766 0.344t-0.766-0.344q-0.375-0.438-0.938-0.961t-1.352-1.125-1.727-1-1.75-0.398-1.531 0.125-1.469 0.484-1.273 0.93-0.859 1.539-0.336 2.234q0 2.625 2.922 5.547l9.078 8.75 9.063-8.734q2.938-2.938 2.938-5.563zM30 11.313q0 3.453-3.578 7.031l-9.734 9.375q-0.281 0.281-0.688 0.281t-0.688-0.281l-9.75-9.406q-0.156-0.125-0.43-0.406t-0.867-1.023-1.063-1.523-0.836-1.891-0.367-2.156q0-3.438 1.984-5.375t5.484-1.938q0.969 0 1.977 0.336t1.875 0.906 1.492 1.070 1.188 1.063q0.563-0.563 1.188-1.063t1.492-1.070 1.875-0.906 1.977-0.336q3.5 0 5.484 1.938t1.984 5.375z"></path>
</symbol>

<symbol id="icon-compare" viewBox="0 0 32 32">
<path d="M15.867 4.245c-0.1 0.063-0.152 0.192-0.255 0.63-0.125 0.535-0.225 0.875-0.33 1.112-0.13 0.295-0.182 0.53-0.182 0.808 0 0.31 0.050 0.51 0.205 0.825 0.092 0.185 0.12 0.265 0.1 0.285-0.015 0.015-0.020 0.063-0.012 0.108 0.010 0.057-0.010 0.133-0.068 0.262-0.045 0.102-0.117 0.325-0.16 0.498l-0.080 0.315-0.31 0.030c-1.047 0.102-2.135 0.435-3.225 0.982-0.578 0.293-0.803 0.44-1.643 1.068-0.875 0.655-1.283 0.91-1.738 1.082-0.192 0.072-0.237 0.068-0.258-0.033-0.060-0.275-0.275-0.46-0.567-0.485-0.268-0.025-0.513 0.123-0.62 0.373-0.105 0.242-0.032 0.553 0.165 0.715 0.072 0.060 0.088 0.088 0.077 0.135-0.010 0.033-0.605 1.272-1.325 2.758-0.718 1.485-1.6 3.305-1.955 4.045-0.587 1.215-0.657 1.345-0.72 1.363l-0.067 0.017 0.090 0.135c0.127 0.188 0.438 0.505 0.672 0.69 0.948 0.74 2.285 1.102 3.887 1.055 0.795-0.025 1.348-0.117 1.998-0.332 0.885-0.293 1.595-0.777 2.045-1.398l0.11-0.15-0.070-0.017c-0.065-0.017-0.225-0.34-2.020-4.047-1.072-2.217-1.95-4.047-1.95-4.070 0-0.030 0.058-0.050 0.263-0.085 0.533-0.088 1.098-0.297 1.633-0.6 0.255-0.143 0.43-0.258 1.447-0.947 0.738-0.5 1.635-0.89 2.598-1.133 0.52-0.133 1.293-0.24 1.363-0.193 0.015 0.010 0.040 0.2 0.055 0.443 0.053 0.748 0.158 1.273 0.408 2.020 0.123 0.367 0.145 0.455 0.117 0.485-0.025 0.030-0.020 0.045 0.030 0.082l0.057 0.043-0.117 2.123c-0.182 3.312-0.24 4.627-0.24 5.473 0 0.46 0.008 0.555 0.053 0.727 0.070 0.26 0.065 0.32-0.040 0.44-0.162 0.192-0.203 0.43-0.113 0.695 0.030 0.087 0.043 0.175 0.035 0.22-0.008 0.043-0.002 0.080 0.012 0.090 0.030 0.020 0.037-0.027-0.127 0.802-0.12 0.608-0.13 0.675-0.13 1.038-0.002 0.212 0.012 0.615 0.033 0.892 0.030 0.415 0.030 0.51 0.005 0.543-0.030 0.035-0.137 0.040-0.852 0.040h-0.818l-0.152 0.078c-0.145 0.073-0.258 0.18-0.33 0.323-0.018 0.035-0.045 0.070-0.060 0.080s-0.162 0.020-0.33 0.020c-0.193 0-0.345 0.012-0.428 0.038-0.152 0.045-0.33 0.177-0.425 0.317-0.063 0.093-0.088 0.108-0.22 0.137-0.2 0.045-0.34 0.133-0.45 0.28-0.135 0.188-0.22 0.245-0.457 0.317-0.12 0.038-0.258 0.087-0.31 0.113-0.095 0.050-0.195 0.157-0.195 0.212 0 0.030 0.95 0.035 6.025 0.035s6.025-0.005 6.025-0.035c0-0.055-0.1-0.163-0.195-0.212-0.052-0.025-0.177-0.073-0.28-0.102-0.258-0.075-0.345-0.133-0.462-0.29-0.128-0.172-0.282-0.277-0.47-0.315-0.137-0.030-0.157-0.043-0.238-0.152-0.188-0.26-0.395-0.343-0.852-0.343h-0.32l-0.090-0.145c-0.050-0.080-0.133-0.177-0.185-0.212-0.205-0.14-0.215-0.142-1.087-0.142-0.445 0-0.823-0.010-0.843-0.023-0.030-0.020-0.032-0.085-0.020-0.367 0.010-0.19 0.030-0.477 0.045-0.635 0.040-0.395 0.015-0.765-0.075-1.225-0.183-0.905-0.203-1.032-0.175-1.065 0.015-0.017 0.020-0.065 0.012-0.105-0.010-0.040 0-0.108 0.020-0.157 0.102-0.245 0.070-0.523-0.082-0.718-0.122-0.155-0.133-0.2-0.073-0.385 0.12-0.367 0.090-1.488-0.17-6.24l-0.12-2.16 0.058-0.043c0.050-0.037 0.052-0.053 0.027-0.095-0.027-0.040-0.017-0.085 0.058-0.29 0.133-0.348 0.26-0.803 0.343-1.215 0.067-0.335 0.098-0.575 0.145-1.203l0.017-0.238 0.212 0.008c0.635 0.023 1.692 0.293 2.512 0.643 0.48 0.205 0.813 0.387 1.325 0.735 0.275 0.185 0.63 0.425 0.788 0.53 0.813 0.543 1.455 0.825 2.188 0.96 0.262 0.047 0.3 0.063 0.295 0.102-0.003 0.025-0.425 0.912-0.938 1.973-0.515 1.058-1.39 2.867-1.945 4.020-0.938 1.938-1.018 2.095-1.085 2.113l-0.070 0.020 0.152 0.203c0.657 0.872 1.837 1.453 3.328 1.637 0.348 0.043 1.505 0.043 1.85 0 0.585-0.075 1.11-0.2 1.587-0.387 0.71-0.273 1.352-0.735 1.74-1.25l0.152-0.203-0.070-0.020c-0.067-0.017-0.125-0.128-0.765-1.45-0.38-0.788-1.267-2.617-1.97-4.067-0.7-1.45-1.275-2.655-1.275-2.678s0.032-0.065 0.075-0.095c0.108-0.080 0.203-0.258 0.218-0.41 0.058-0.57-0.608-0.912-1.038-0.535-0.087 0.078-0.205 0.287-0.205 0.37 0 0.072-0.108 0.055-0.363-0.055-0.473-0.2-0.802-0.415-1.793-1.158-0.343-0.258-0.742-0.54-0.895-0.63-1.17-0.693-2.582-1.178-3.775-1.293l-0.335-0.033-0.080-0.315c-0.045-0.172-0.113-0.38-0.148-0.463-0.038-0.080-0.078-0.22-0.087-0.307-0.020-0.155-0.017-0.162 0.090-0.375 0.142-0.282 0.21-0.548 0.21-0.838 0-0.282-0.043-0.465-0.183-0.795-0.11-0.26-0.225-0.647-0.37-1.27-0.073-0.31-0.087-0.345-0.172-0.433-0.105-0.105-0.193-0.117-0.307-0.048zM7.415 12.265c0.093 0.137-0.063 0.293-0.2 0.2-0.122-0.078-0.060-0.265 0.088-0.265 0.050 0 0.085 0.020 0.112 0.065zM24.81 12.255c0.023 0.030 0.040 0.075 0.040 0.1 0 0.060-0.087 0.145-0.15 0.145-0.065 0-0.15-0.085-0.15-0.155 0-0.133 0.185-0.197 0.26-0.090zM7.21 12.99c0.035 0.035 0.040 0.438 0.040 4.057 0 3.090-0.008 4.025-0.030 4.047-0.048 0.047-3.993 0.043-4.010-0.003-0.015-0.038 3.875-8.092 3.923-8.123 0.037-0.025 0.032-0.025 0.077 0.020zM26.845 17.017c1.075 2.225 1.95 4.058 1.945 4.075-0.017 0.045-3.965 0.047-4.010 0.003-0.023-0.023-0.030-0.96-0.030-4.063 0-3.758 0.003-4.032 0.043-4.053 0.023-0.015 0.055-0.020 0.070-0.015 0.012 0.005 0.905 1.83 1.982 4.053zM7.495 13.005c0.013 0.018 0.435 0.883 0.938 1.92s1.375 2.843 1.94 4.012c0.565 1.168 1.022 2.137 1.018 2.155-0.018 0.045-3.965 0.047-4.010 0.003-0.022-0.023-0.030-0.953-0.030-4.035 0-2.203 0.008-4.023 0.015-4.045 0.018-0.047 0.093-0.053 0.13-0.010zM24.613 17.050v4.063l-1.995 0.008c-1.655 0.005-1.995 0-2.008-0.027-0.008-0.020 0.765-1.642 1.718-3.608 0.95-1.965 1.823-3.768 1.94-4.008 0.23-0.48 0.247-0.508 0.305-0.498 0.038 0.008 0.040 0.375 0.040 4.070z"></path>
</symbol>

<symbol id="icon-star" viewBox="0 0 32 32">
<path d="M259.3 17.8L194 150.2 47.9 171.5c-26.2 3.8-36.7 36.1-17.7 54.6l105.7 103-25 145.5c-4.5 26.3 23.2 46 46.4 33.7L288 439.6l130.7 68.7c23.2 12.2 50.9-7.4 46.4-33.7l-25-145.5 105.7-103c19-18.5 8.5-50.8-17.7-54.6L382 150.2 316.7 17.8c-11.7-23.6-45.6-23.9-57.4 0z" />
</symbol>


</defs>
</svg>
